<svg xmlns="http://www.w3.org/2000/svg" xmlns:xlink="http://www.w3.org/1999/xlink" width="500" zoomAndPan="magnify" viewBox="0 0 375 374.999991" height="500" preserveAspectRatio="xMidYMid meet" version="1.0"><defs><g/><clipPath id="970c980da6"><path d="M 174 150 L 248 150 L 248 225 L 174 225 Z M 174 150 " clip-rule="nonzero"/></clipPath><clipPath id="41109be7da"><path d="M 162.019531 165.9375 L 235.027344 140.160156 L 258.71875 207.246094 L 185.707031 233.027344 Z M 162.019531 165.9375 " clip-rule="nonzero"/></clipPath><clipPath id="f79b68c7fb"><path d="M 162.019531 165.9375 L 235.027344 140.160156 L 258.71875 207.246094 L 185.707031 233.027344 Z M 162.019531 165.9375 " clip-rule="nonzero"/></clipPath><clipPath id="c27b4e50ec"><path d="M 120 108 L 174 108 L 174 193 L 120 193 Z M 120 108 " clip-rule="nonzero"/></clipPath><clipPath id="7dd98db4a9"><path d="M 117.859375 109.585938 L 171.507812 107.066406 L 175.433594 190.679688 L 121.78125 193.195312 Z M 117.859375 109.585938 " clip-rule="nonzero"/></clipPath><clipPath id="26a375d8c7"><path d="M 117.859375 109.585938 L 171.507812 107.066406 L 175.433594 190.679688 L 121.78125 193.195312 Z M 117.859375 109.585938 " clip-rule="nonzero"/></clipPath><clipPath id="31c690a699"><path d="M 130 80 L 205 80 L 205 202 L 130 202 Z M 130 80 " clip-rule="nonzero"/></clipPath><clipPath id="a028796934"><path d="M 127.585938 82.207031 L 203.535156 78.644531 L 209.160156 198.488281 L 133.210938 202.050781 Z M 127.585938 82.207031 " clip-rule="nonzero"/></clipPath><clipPath id="dc9a29d839"><path d="M 127.585938 82.207031 L 203.535156 78.644531 L 209.160156 198.488281 L 133.210938 202.050781 Z M 127.585938 82.207031 " clip-rule="nonzero"/></clipPath><clipPath id="47ed998bf0"><path d="M 127.585938 82.207031 L 203.535156 78.644531 L 209.160156 198.488281 L 133.210938 202.050781 Z M 127.585938 82.207031 " clip-rule="nonzero"/></clipPath><clipPath id="0bdfb5bbfd"><path d="M 162.019531 171 L 208 171 L 208 219 L 162.019531 219 Z M 162.019531 171 " clip-rule="nonzero"/></clipPath><clipPath id="32d4d625e1"><path d="M 168 150.527344 L 221 150.527344 L 221 193 L 168 193 Z M 168 150.527344 " clip-rule="nonzero"/></clipPath><clipPath id="31c27668dd"><path d="M 205 199 L 223.402344 199 L 223.402344 235.625 L 205 235.625 Z M 205 199 " clip-rule="nonzero"/></clipPath></defs><g fill="#000000" fill-opacity="1"><g transform="translate(99.523672, 243.919465)"><g><path d="M 45.710938 -21.355469 C 45.644531 -21.554688 45.511719 -21.621094 45.378906 -21.621094 C 45.3125 -21.621094 45.246094 -21.621094 45.179688 -21.554688 C 39.707031 -19.085938 34.035156 -17.015625 28.429688 -14.816406 C 26.761719 -15.617188 25.023438 -16.28125 23.355469 -16.949219 C 21.6875 -17.550781 20.019531 -18.085938 18.417969 -18.617188 C 13.878906 -20.085938 8.808594 -22.621094 8.609375 -28.09375 C 8.542969 -29.628906 9.007812 -31.164062 9.875 -32.433594 C 12.078125 -35.367188 15.882812 -36.304688 19.351562 -36.304688 C 22.089844 -36.304688 25.691406 -35.636719 27.695312 -33.632812 C 28.226562 -33.03125 28.628906 -32.367188 28.695312 -31.632812 C 28.828125 -30.898438 28.628906 -30.097656 28.226562 -29.363281 C 28.09375 -29.164062 28.160156 -28.894531 28.429688 -28.761719 C 28.496094 -28.695312 28.5625 -28.695312 28.628906 -28.695312 C 28.761719 -28.695312 28.960938 -28.761719 29.027344 -28.960938 C 29.496094 -29.761719 29.761719 -30.699219 29.695312 -31.699219 C 29.363281 -36.234375 22.554688 -37.703125 18.820312 -37.703125 C 15.015625 -37.703125 10.945312 -36.636719 8.542969 -33.433594 C 7.40625 -31.898438 6.808594 -29.964844 6.875 -28.027344 C 7.074219 -21.6875 12.546875 -18.550781 17.816406 -16.882812 C 19.417969 -16.28125 21.085938 -15.75 22.6875 -15.148438 C 23.824219 -14.746094 24.890625 -14.28125 25.960938 -13.878906 C 19.6875 -11.34375 7.609375 -6.40625 2.804688 -1.601562 C 1.535156 -0.402344 0.332031 1.132812 0.0664062 3.070312 C -0.0664062 4.070312 0.0664062 5.070312 0.46875 5.9375 C 0.933594 6.875 1.46875 7.472656 2.203125 8.207031 C 4.136719 9.675781 6.808594 10.011719 9.140625 10.011719 C 16.351562 10.011719 32.433594 5.40625 36.167969 -1.800781 C 36.234375 -2.003906 36.371094 -2.269531 36.4375 -2.535156 C 36.570312 -2.804688 36.570312 -3.003906 36.636719 -3.203125 C 36.703125 -3.804688 36.769531 -4.203125 36.769531 -4.738281 C 36.769531 -9.277344 32.964844 -12.34375 29.363281 -14.347656 L 35.835938 -16.882812 C 39.105469 -18.152344 42.308594 -19.351562 45.511719 -20.820312 C 45.710938 -20.953125 45.777344 -21.15625 45.710938 -21.355469 Z M 34.566406 -6.941406 C 35.101562 -5.539062 35.167969 -3.871094 34.566406 -2.535156 C 31.832031 3.605469 15.949219 8.742188 8.875 8.742188 C 8.410156 8.742188 8.007812 8.675781 7.539062 8.675781 C 5.871094 8.542969 4.136719 8.207031 2.9375 7.273438 C 2.335938 6.941406 1.800781 6.074219 1.46875 5.472656 C 1.132812 4.738281 1 4.003906 1.066406 3.203125 C 1.46875 0.199219 5.070312 -2.535156 7.472656 -4.070312 C 13.28125 -7.808594 19.753906 -10.410156 26.160156 -13.078125 L 27.027344 -13.414062 C 29.898438 -12.011719 33.367188 -10.078125 34.566406 -6.941406 Z M 34.566406 -6.941406 "/></g></g></g><g fill="#000000" fill-opacity="1"><g transform="translate(146.100076, 243.919465)"><g><path d="M 23.289062 -10.210938 C 23.15625 -10.277344 22.890625 -10.210938 22.824219 -10.078125 C 20.085938 -5.605469 17.21875 -1.867188 11.613281 -1.269531 C 11.679688 -2.335938 11.679688 -3.402344 11.476562 -4.40625 C 11.078125 -7.742188 8.074219 -10.34375 4.9375 -11.144531 C 4.335938 -11.34375 3.738281 -11.410156 3.070312 -11.410156 C 2.871094 -11.410156 2.667969 -11.410156 2.46875 -11.410156 C 1.667969 -11.34375 0.734375 -11.144531 0.132812 -10.476562 C -0.535156 -9.808594 -0.667969 -8.808594 -0.535156 -8.007812 C -0.132812 -6.339844 0.800781 -5.003906 2.136719 -3.9375 C 1.867188 -3.203125 1.667969 -2.535156 1.601562 -1.800781 C 1.46875 -1 1.46875 -0.199219 1.601562 0.667969 C 1.800781 1.46875 2.203125 2.269531 2.871094 2.871094 C 3.804688 3.804688 5.472656 4.203125 6.738281 4.203125 C 9.675781 4.203125 11.144531 1.867188 11.542969 -0.734375 C 17.082031 -1.066406 20.886719 -5.207031 23.355469 -9.808594 C 23.421875 -9.941406 23.421875 -10.144531 23.289062 -10.210938 Z M 10.011719 -4.203125 C 10.144531 -3.203125 10.144531 -2.203125 10.078125 -1.269531 C 9.542969 -1.269531 9.007812 -1.335938 8.476562 -1.402344 C 6.339844 -1.867188 4.269531 -2.871094 2.667969 -4.269531 C 3.335938 -6.207031 4.738281 -8.339844 6.539062 -9.476562 C 8.410156 -8.339844 9.808594 -6.472656 10.011719 -4.203125 Z M 1 -6.140625 C 0.199219 -7.207031 -0.265625 -9.074219 0.667969 -9.941406 C 1.066406 -10.410156 1.800781 -10.609375 2.535156 -10.675781 C 3.203125 -10.675781 3.9375 -10.542969 4.671875 -10.34375 C 5.207031 -10.144531 5.671875 -9.941406 6.140625 -9.675781 C 4.871094 -8.808594 3.9375 -7.539062 3.136719 -6.207031 C 2.871094 -5.671875 2.601562 -5.136719 2.335938 -4.539062 C 1.867188 -5.003906 1.402344 -5.539062 1 -6.140625 Z M 7.40625 2.9375 C 7.074219 3.003906 6.738281 3.070312 6.339844 3.070312 C 5.339844 3.070312 4.269531 2.734375 3.46875 2.136719 C 2.335938 1.335938 1.933594 -0.265625 2.070312 -1.734375 C 2.136719 -2.402344 2.269531 -3.003906 2.46875 -3.671875 C 4.136719 -2.203125 6.207031 -1.269531 8.410156 -0.867188 C 8.941406 -0.734375 9.476562 -0.734375 10.011719 -0.667969 C 9.609375 0.867188 9.210938 2.46875 7.40625 2.9375 Z M 7.40625 2.9375 "/></g></g></g><g fill="#000000" fill-opacity="1"><g transform="translate(169.121359, 243.919465)"><g><path d="M 25.226562 -10.078125 C 21.957031 -4.871094 13.144531 6.007812 6.539062 6.007812 C 2.667969 5.539062 1.667969 -0.601562 1.402344 -3.671875 C 1.132812 -5.804688 1.132812 -8.074219 1.203125 -10.277344 C 4.738281 -15.816406 10.476562 -26.761719 10.878906 -33.632812 C 10.945312 -34.234375 10.945312 -34.835938 10.8125 -35.433594 C 10.742188 -35.769531 10.675781 -36.101562 10.410156 -36.4375 C 10.144531 -36.835938 9.609375 -37.105469 9.140625 -37.105469 C 7.675781 -37.035156 6.671875 -36.167969 5.871094 -35.300781 C 2.269531 -30.765625 0.667969 -22.089844 -0.0664062 -16.550781 C -0.601562 -12.277344 -0.933594 -7.875 -0.402344 -3.46875 C -0.132812 -1.269531 0.265625 0.933594 1.203125 3.070312 C 2.136719 5.605469 3.738281 7.339844 6.605469 7.339844 C 13.347656 6.738281 22.222656 -4.40625 25.757812 -9.808594 C 25.824219 -10.144531 25.757812 -10.277344 25.558594 -10.277344 C 25.492188 -10.277344 25.292969 -10.144531 25.226562 -10.078125 Z M 9.140625 -35.703125 C 9.210938 -35.703125 9.210938 -35.703125 9.277344 -35.636719 C 9.609375 -35.300781 9.609375 -34.101562 9.609375 -33.699219 C 9.210938 -27.09375 4.539062 -17.550781 1.269531 -11.679688 C 1.402344 -13.214844 1.46875 -14.746094 1.667969 -16.351562 C 2.136719 -19.953125 4.472656 -35.300781 9.140625 -35.703125 Z M 9.140625 -35.703125 "/></g></g></g><g fill="#000000" fill-opacity="1"><g transform="translate(194.544879, 243.919465)"><g><path d="M 3.605469 -16.617188 C 3.46875 -16.882812 2.003906 -19.351562 1.667969 -19.886719 C 1.667969 -19.820312 2.335938 -19.953125 2.335938 -19.886719 C 2.601562 -19.554688 4.9375 -16.882812 4.871094 -16.617188 Z M 17.882812 -10.277344 C 17.816406 -10.34375 17.617188 -10.34375 17.550781 -10.210938 C 16.214844 -8.542969 15.015625 -6.808594 13.679688 -5.207031 C 11.8125 -2.9375 9.410156 -0.535156 6.339844 -0.0664062 C 6.074219 0 5.871094 0 5.605469 0 C 4.871094 0 4.136719 -0.132812 3.46875 -0.402344 C 3.070312 -0.535156 2.601562 -0.734375 2.136719 -0.933594 C 1.800781 -1.132812 1.46875 -1.46875 1.203125 -1.734375 C 0.734375 -2.269531 0.46875 -2.9375 0.332031 -3.671875 C 2.601562 -5.738281 4.871094 -8.007812 5.804688 -11.011719 C 6.007812 -11.542969 6.140625 -12.144531 6.140625 -12.746094 C 6.140625 -13.28125 6.074219 -14.148438 5.273438 -14.613281 C 5.003906 -14.746094 4.738281 -14.816406 4.472656 -14.816406 C 2.46875 -14.816406 0.734375 -12.078125 -0.0664062 -10.542969 C -1 -8.609375 -1.667969 -6.40625 -1.46875 -4.003906 C -1.335938 -2.871094 -0.867188 -1.601562 -0.0664062 -0.667969 C 0.402344 -0.199219 0.867188 0.132812 1.46875 0.46875 C 2.535156 0.867188 3.738281 1.269531 4.871094 1.269531 C 6.605469 1.269531 8.273438 0.667969 9.609375 -0.265625 C 13.28125 -2.804688 15.347656 -6.605469 17.953125 -9.941406 C 18.019531 -10.078125 18.019531 -10.210938 17.882812 -10.277344 Z M 4.472656 -13.679688 C 4.539062 -13.679688 4.671875 -13.679688 4.738281 -13.613281 C 4.9375 -13.546875 5.070312 -13.214844 5.070312 -12.746094 C 5.070312 -12.277344 4.9375 -11.8125 4.804688 -11.34375 C 4.472656 -10.410156 4.003906 -9.476562 3.46875 -8.609375 C 2.535156 -7.339844 1.46875 -6.074219 0.199219 -5.136719 C 0.199219 -7.007812 1.933594 -13.679688 4.472656 -13.679688 Z M 4.472656 -13.679688 "/></g></g></g><g fill="#000000" fill-opacity="1"><g transform="translate(211.960983, 243.919465)"><g><path d="M 28.09375 -10.277344 C 27.960938 -10.34375 27.695312 -10.210938 27.628906 -10.078125 C 24.824219 -5.207031 18.683594 1.402344 14.414062 4.539062 C 13.878906 4.9375 13.613281 4.9375 13.011719 4.9375 C 12.746094 4.871094 12.414062 4.40625 12.144531 3.871094 C 11.011719 0.867188 11.34375 -2.804688 11.410156 -5.804688 C 11.476562 -6.539062 11.476562 -7.339844 11.476562 -8.074219 C 11.476562 -9.140625 11.210938 -10.675781 10.277344 -11.34375 C 9.808594 -11.613281 9.34375 -11.746094 8.941406 -11.746094 C 8.074219 -11.746094 7.273438 -11.277344 6.808594 -10.8125 C 5.339844 -9.410156 4.203125 -7.875 3.070312 -6.273438 C 2.402344 -5.40625 1.734375 -4.472656 1.066406 -3.535156 C 1.269531 -5.070312 1.46875 -9.277344 1.132812 -9.875 L 1.066406 -9.875 C 1 -10.277344 0.667969 -10.476562 0.332031 -10.410156 C -0.0664062 -10.34375 -0.265625 -9.941406 -0.199219 -9.609375 C -0.0664062 -7.007812 0 -2.9375 -0.734375 -1.667969 C -0.800781 -1.402344 -0.667969 -1.066406 -0.46875 -0.933594 C -0.332031 -0.867188 -0.199219 -0.800781 -0.0664062 -0.800781 C 0.132812 -0.800781 0.332031 -0.933594 0.46875 -1.066406 C 0.535156 -1.132812 0.535156 -1.203125 0.601562 -1.335938 C 1.402344 -3.804688 5.472656 -8.273438 7.609375 -9.875 C 7.808594 -9.941406 7.941406 -10.078125 8.140625 -10.144531 C 8.339844 -10.277344 8.273438 -10.210938 8.609375 -10.277344 C 8.675781 -10.277344 8.808594 -10.277344 8.875 -10.277344 C 9.074219 -10.277344 9.277344 -10.210938 9.34375 -10.144531 C 9.675781 -9.875 9.808594 -8.941406 9.808594 -8.074219 C 9.941406 -4.671875 9.675781 -1.132812 10.34375 2.335938 C 10.609375 3.671875 11.277344 5.738281 12.746094 6.140625 C 12.945312 6.207031 13.078125 6.207031 13.28125 6.207031 C 16.816406 6.207031 26.558594 -6.738281 28.160156 -9.808594 C 28.226562 -9.941406 28.226562 -10.144531 28.09375 -10.277344 Z M 28.09375 -10.277344 "/></g></g></g><g fill="#000000" fill-opacity="1"><g transform="translate(239.78672, 243.919465)"><g><path d="M 17.882812 -10.277344 C 17.816406 -10.34375 17.484375 -10.277344 17.417969 -10.144531 C 15.148438 -6.605469 10.878906 -0.734375 6.339844 -0.0664062 C 6.074219 0 5.871094 0 5.605469 0 C 4.871094 0 4.136719 -0.132812 3.46875 -0.402344 C 3.070312 -0.535156 2.601562 -0.734375 2.136719 -0.933594 C 1.800781 -1.132812 1.46875 -1.46875 1.203125 -1.734375 C 0.734375 -2.269531 0.46875 -2.9375 0.332031 -3.671875 C 2.601562 -5.738281 4.871094 -8.007812 5.804688 -11.011719 C 6.007812 -11.542969 6.140625 -12.144531 6.140625 -12.746094 C 6.140625 -13.28125 6.074219 -14.148438 5.273438 -14.613281 C 5.003906 -14.746094 4.738281 -14.816406 4.472656 -14.816406 C 2.46875 -14.816406 0.734375 -12.078125 -0.0664062 -10.542969 C -1 -8.609375 -1.667969 -6.40625 -1.46875 -4.003906 C -1.335938 -2.871094 -0.867188 -1.601562 -0.0664062 -0.667969 C 0.402344 -0.199219 0.867188 0.132812 1.46875 0.46875 C 2.535156 0.867188 3.738281 1.269531 4.871094 1.269531 C 6.605469 1.269531 8.273438 0.667969 9.609375 -0.265625 C 13.28125 -2.804688 15.214844 -5.9375 17.953125 -9.941406 C 18.019531 -10.078125 18.019531 -10.210938 17.882812 -10.277344 Z M 4.472656 -13.679688 C 4.539062 -13.679688 4.671875 -13.679688 4.738281 -13.613281 C 4.9375 -13.546875 5.070312 -13.214844 5.070312 -12.746094 C 5.070312 -12.277344 4.9375 -11.8125 4.804688 -11.34375 C 4.472656 -10.410156 4.003906 -9.476562 3.46875 -8.609375 C 2.535156 -7.339844 1.46875 -6.074219 0.199219 -5.136719 C 0.199219 -7.007812 1.933594 -13.679688 4.472656 -13.679688 Z M 4.472656 -13.679688 "/></g></g></g><g fill="#000000" fill-opacity="1"><g transform="translate(257.391021, 243.919465)"><g/></g></g><g clip-path="url(#970c980da6)"><g clip-path="url(#41109be7da)"><g clip-path="url(#f79b68c7fb)"><path fill="#e2e6e2" d="M 179.460938 171.304688 C 185.394531 159.933594 197.734375 150.15625 212.929688 150.027344 C 215.097656 150.042969 233.46875 150.167969 242.617188 164.207031 C 252.34375 179.234375 244.753906 199.734375 234.40625 210.597656 C 222.871094 222.660156 200.046875 231.039062 185.085938 218.917969 C 171.246094 207.636719 172.214844 185.207031 179.460938 171.304688 Z M 179.460938 171.304688 " fill-opacity="1" fill-rule="nonzero"/></g></g></g><g clip-path="url(#c27b4e50ec)"><g clip-path="url(#7dd98db4a9)"><g clip-path="url(#26a375d8c7)"><path fill="#e1dddd" d="M 148.796875 108.308594 C 160.609375 108.925781 167.628906 126.15625 170.089844 132.269531 C 172.554688 138.378906 173.988281 141.824219 172.835938 146.613281 C 170.878906 154.742188 163.617188 153.804688 155.804688 163.75 C 147.988281 173.699219 150.300781 179.976562 140.609375 188.359375 C 137.449219 191.117188 135.351562 192.8125 132.738281 192.507812 C 124.5625 191.402344 120.066406 170.21875 120.101562 155.15625 C 120.160156 147.332031 120.371094 133.695312 129.613281 121.449219 C 133.113281 116.867188 139.964844 107.871094 148.796875 108.308594 Z M 148.796875 108.308594 " fill-opacity="1" fill-rule="nonzero"/></g></g></g><g clip-path="url(#31c690a699)"><g clip-path="url(#a028796934)"><g clip-path="url(#dc9a29d839)"><g clip-path="url(#47ed998bf0)"><path fill="#1d1d1b" d="M 156.847656 138.125 C 159.976562 135.863281 163.230469 139.695312 163.332031 142.777344 L 163.691406 141.828125 C 162.515625 141.71875 161.316406 141.125 160.28125 140.605469 C 158.894531 139.921875 157.640625 139.042969 156.519531 137.976562 C 156.042969 137.558594 155.667969 137.0625 155.398438 136.484375 C 155.351562 136.363281 155.347656 136.285156 155.300781 136.164062 C 155.257812 136.042969 155.339844 136.121094 155.300781 136.125 C 155.261719 136.125 155.449219 135.832031 155.5625 135.664062 C 156.402344 134.648438 157.773438 134.585938 158.992188 134.691406 C 159.816406 134.722656 160.605469 134.902344 161.363281 135.230469 C 161.679688 135.363281 161.945312 135.566406 162.160156 135.84375 L 162.332031 136.078125 C 162.285156 135.917969 162.324219 135.957031 162.253906 136.164062 L 162.726562 135.898438 C 159.421875 131.785156 156.613281 127.078125 155.558594 121.84375 C 154.949219 119.289062 155.019531 116.75 155.769531 114.234375 C 156.582031 111.820312 157.839844 109.675781 159.550781 107.796875 C 161.003906 106.0625 162.75 104.476562 164.847656 103.5625 C 165.855469 103.105469 166.910156 102.894531 168.011719 102.929688 C 169.226562 102.992188 170.300781 103.472656 171.488281 103.78125 C 172.675781 104.089844 173.402344 104.097656 174.183594 103.53125 C 174.976562 102.90625 175.394531 102.085938 175.445312 101.074219 C 175.667969 98.992188 174.84375 96.917969 174.027344 95.042969 C 173.214844 93.171875 172.273438 91.226562 171.574219 89.226562 C 170.652344 86.5 170.007812 83.714844 169.644531 80.859375 C 169.632812 80.617188 169.484375 80.015625 169.136719 80.355469 C 166.425781 83.28125 164.644531 86.699219 163.796875 90.605469 C 163.203125 93.480469 162.902344 96.542969 163.605469 99.4375 C 164.015625 101.308594 164.9375 102.878906 166.371094 104.144531 C 167.640625 105.289062 169.105469 106.0625 170.765625 106.457031 C 171.746094 106.695312 172.757812 106.730469 173.738281 106.925781 C 174.878906 107.132812 175.988281 107.457031 177.058594 107.910156 C 178.722656 108.648438 180.273438 109.578125 181.714844 110.699219 C 185.066406 113.222656 187.613281 116.640625 189.566406 120.328125 C 189.609375 120.410156 189.652344 120.449219 189.730469 120.445312 C 190.636719 120.367188 191.527344 120.214844 192.410156 119.996094 C 193.289062 119.773438 194.148438 119.480469 194.980469 119.117188 C 195.8125 118.753906 196.613281 118.328125 197.375 117.835938 C 198.140625 117.34375 198.863281 116.792969 199.539062 116.1875 C 200.214844 115.578125 200.835938 114.917969 201.40625 114.207031 C 201.976562 113.496094 202.484375 112.746094 202.933594 111.949219 C 203.382812 111.15625 203.765625 110.332031 204.082031 109.476562 C 204.398438 108.621094 204.644531 107.746094 204.820312 106.851562 C 204.886719 106.605469 204.886719 105.75 204.449219 105.851562 L 198.902344 107.414062 C 197.386719 107.851562 195.824219 108.167969 194.355469 108.722656 C 193.699219 108.996094 193.089844 109.347656 192.527344 109.789062 C 191.964844 110.226562 191.472656 110.734375 191.050781 111.308594 C 190.628906 111.886719 190.292969 112.507812 190.039062 113.175781 C 189.789062 113.84375 189.632812 114.535156 189.570312 115.25 C 189.414062 116.410156 189.480469 117.558594 189.769531 118.695312 L 189.8125 117.878906 C 188.863281 121.703125 188.355469 125.589844 187.8125 129.476562 C 187.578125 131.4375 187.308594 133.402344 186.914062 135.332031 C 186.519531 137.261719 186.214844 139.347656 185.449219 141.171875 C 184.152344 144.292969 182.300781 147.035156 179.894531 149.398438 C 179.289062 150.015625 178.65625 150.601562 177.996094 151.15625 C 177.375 151.710938 176.667969 152.152344 176.128906 152.746094 C 175.589844 153.339844 174.597656 155.417969 173.9375 156.875 C 172.507812 159.949219 171.070312 162.984375 169.765625 166.132812 L 165.878906 175.460938 C 163.214844 181.601562 160.265625 187.632812 156.230469 192.984375 C 155.203125 194.375 154.09375 195.726562 152.941406 197.003906 C 151.789062 198.277344 150.648438 199.832031 148.824219 199.714844 C 147 199.597656 146.21875 198.457031 145.4375 197.3125 C 144.449219 195.792969 143.925781 194.121094 143.871094 192.304688 C 143.792969 191.398438 143.777344 190.492188 143.824219 189.585938 L 143.457031 190.375 C 144.535156 190.121094 145.5 190.847656 146.183594 191.628906 C 146.5625 192.058594 146.878906 192.53125 147.136719 193.046875 C 147.273438 193.257812 147.363281 193.480469 147.414062 193.726562 C 147.46875 194.046875 147.199219 194.34375 147.050781 194.597656 C 145.605469 196.574219 142.578125 196.675781 140.410156 196.085938 C 139.214844 195.746094 138.167969 195.148438 137.261719 194.292969 C 136.359375 193.4375 135.703125 192.421875 135.289062 191.246094 C 134.492188 189.078125 134.378906 186.875 134.941406 184.636719 C 135.28125 183.386719 135.8125 182.226562 136.539062 181.15625 C 137.265625 180.082031 138.144531 179.160156 139.175781 178.382812 C 139.5625 178.078125 139.53125 177.347656 139.308594 176.953125 C 137.546875 173.726562 136.082031 170.367188 134.914062 166.875 C 133.46875 162.402344 132.488281 157.828125 131.96875 153.152344 C 131.402344 148.910156 131.042969 144.617188 131.367188 140.335938 C 131.78125 135.144531 133.277344 130.292969 135.855469 125.777344 C 138.070312 121.953125 140.863281 118.625 144.242188 115.789062 C 144.507812 115.527344 144.601562 115.210938 144.519531 114.84375 C 144.515625 114.71875 144.363281 114.078125 144.128906 114.25 C 137.011719 120.277344 132.191406 128.632812 130.929688 137.917969 C 130.300781 142.582031 130.519531 147.285156 131.0625 151.933594 C 131.601562 156.582031 132.394531 161.382812 133.78125 165.992188 C 135.085938 170.273438 136.800781 174.378906 138.929688 178.3125 L 139.0625 176.882812 C 134.53125 180.265625 132.847656 186.523438 134.632812 191.84375 C 135.027344 193.21875 135.707031 194.433594 136.660156 195.488281 C 137.695312 196.5 138.902344 197.214844 140.28125 197.636719 C 142.820312 198.371094 146.4375 197.957031 147.730469 195.296875 C 148.503906 193.753906 147.945312 192.15625 146.992188 190.816406 C 146.039062 189.480469 144.941406 188.476562 143.503906 188.785156 C 143.183594 188.882812 143.125 189.332031 143.136719 189.578125 C 143.121094 191.894531 143.152344 194.25 143.902344 196.449219 C 144.652344 198.652344 145.679688 199.902344 147.21875 200.808594 C 147.980469 201.261719 148.796875 201.398438 149.664062 201.21875 C 150.664062 200.96875 151.320312 200.328125 152.054688 199.644531 C 153.585938 198.027344 155.027344 196.332031 156.386719 194.5625 C 161.445312 187.863281 164.882812 180.140625 168.078125 172.390625 C 169.75 168.410156 171.34375 164.433594 173.140625 160.570312 C 173.621094 159.570312 174.101562 158.652344 174.542969 157.65625 C 174.867188 156.757812 175.253906 155.882812 175.710938 155.042969 C 176.3125 154.078125 177.214844 153.46875 178.070312 152.738281 C 178.925781 152.003906 179.621094 151.363281 180.355469 150.636719 C 183.449219 147.546875 185.566406 143.882812 186.710938 139.648438 C 187.984375 134.875 188.398438 129.9375 189.140625 125.066406 C 189.324219 123.835938 189.546875 122.566406 189.773438 121.335938 L 190.171875 119.488281 C 190.367188 118.972656 190.433594 118.441406 190.378906 117.894531 C 190.109375 116.402344 190.082031 115.019531 190.746094 113.648438 C 191.144531 112.847656 191.675781 112.152344 192.339844 111.558594 C 193 110.964844 193.75 110.519531 194.589844 110.21875 C 195.460938 109.890625 196.421875 109.644531 197.339844 109.398438 L 201.050781 108.367188 L 204.5625 107.390625 L 204.191406 106.390625 C 204.121094 106.640625 204.09375 106.925781 203.988281 107.214844 C 203.871094 107.664062 203.730469 108.101562 203.5625 108.535156 C 203.140625 109.734375 202.574219 110.859375 201.863281 111.90625 C 200.074219 114.546875 197.710938 116.472656 194.777344 117.6875 C 193.699219 118.152344 192.585938 118.476562 191.425781 118.65625 L 190.304688 118.832031 L 189.898438 118.851562 C 189.816406 118.8125 189.984375 118.96875 189.8125 118.734375 C 189.734375 118.535156 189.632812 118.351562 189.503906 118.179688 C 188.164062 115.742188 186.535156 113.511719 184.625 111.496094 C 183.179688 110.050781 181.582031 108.796875 179.839844 107.738281 C 177.457031 106.292969 174.882812 105.421875 172.117188 105.132812 C 170.882812 104.996094 169.710938 104.636719 168.613281 104.058594 C 167.511719 103.480469 166.550781 102.71875 165.734375 101.773438 C 164.234375 99.976562 163.839844 97.554688 163.890625 95.234375 C 163.972656 92.71875 164.492188 90.296875 165.445312 87.972656 C 166.402344 85.644531 167.734375 83.5625 169.441406 81.722656 L 168.972656 81.21875 C 169.527344 85.832031 170.785156 90.246094 172.746094 94.453125 C 173.601562 96.242188 174.664062 98.226562 174.796875 100.210938 C 174.835938 100.609375 174.765625 100.984375 174.582031 101.339844 C 174.402344 101.691406 174.140625 101.96875 173.796875 102.167969 C 172.773438 102.785156 171.332031 102.164062 170.265625 101.847656 C 169.191406 101.472656 168.089844 101.339844 166.957031 101.449219 C 165.824219 101.558594 164.769531 101.902344 163.785156 102.476562 C 161.851562 103.648438 160.195312 105.132812 158.820312 106.9375 C 157.175781 108.894531 155.957031 111.089844 155.167969 113.53125 C 154.433594 116.089844 154.273438 118.683594 154.6875 121.316406 C 155.570312 127.210938 158.652344 132.632812 162.34375 137.214844 C 162.558594 137.488281 162.746094 137.15625 162.816406 136.949219 C 162.984375 136.542969 163.046875 136.117188 162.996094 135.679688 C 162.945312 135.242188 162.792969 134.84375 162.539062 134.484375 C 161.976562 133.898438 161.300781 133.523438 160.507812 133.359375 C 159.15625 133.015625 157.164062 132.785156 155.953125 133.695312 C 155.644531 133.933594 155.382812 134.214844 155.171875 134.546875 C 154.960938 134.875 154.8125 135.234375 154.726562 135.617188 C 154.640625 136 154.621094 136.386719 154.671875 136.777344 C 154.722656 137.167969 154.839844 137.535156 155.019531 137.882812 C 155.820312 139.472656 157.449219 140.574219 158.90625 141.480469 C 160.363281 142.390625 162.019531 143.246094 163.644531 143.375 C 164.007812 143.398438 164.011719 142.585938 164 142.382812 C 163.882812 138.972656 160.492188 133.929688 156.738281 136.625 C 156.347656 136.929688 156.5 138.425781 156.847656 138.125 Z M 156.847656 138.125 " fill-opacity="1" fill-rule="nonzero"/></g></g></g></g><path fill="#1d1d1b" d="M 182.6875 169.78125 C 181.714844 169.5 180.804688 169.21875 179.808594 169.023438 L 177.097656 168.546875 C 176.546875 168.457031 175.992188 168.40625 175.429688 168.394531 C 174.054688 168.367188 172.683594 168.425781 171.3125 168.570312 C 170.773438 168.613281 169.949219 168.71875 169.558594 169.175781 C 169.167969 169.628906 169.210938 170.167969 169.320312 170.667969 C 169.667969 172.117188 171.074219 172.527344 172.375 172.03125 C 173.238281 171.703125 174.125 171.488281 175.039062 171.382812 C 177.273438 171.078125 179.546875 171.164062 181.800781 171.101562 C 182.515625 171.078125 183.402344 171.101562 183.035156 170.019531 C 182.882812 169.652344 182.753906 169.652344 182.449219 169.800781 C 181.777344 170.105469 180.914062 170.0625 180.199219 170.167969 C 180.152344 170.167969 180.175781 170.277344 180.199219 170.277344 C 180.824219 170.386719 181.671875 170.386719 182.257812 170.644531 C 182.355469 170.71875 182.449219 170.796875 182.539062 170.882812 C 182.753906 171.035156 182.667969 171.011719 182.582031 170.820312 L 182.582031 169.910156 C 182.6875 169.652344 182.777344 169.738281 182.472656 169.757812 L 181.691406 169.824219 L 179.417969 169.976562 C 177.613281 170.09375 175.824219 170.308594 174.042969 170.625 C 173.441406 170.75 172.855469 170.929688 172.289062 171.164062 C 171.746094 171.378906 171.1875 171.414062 170.621094 171.273438 C 169.644531 171.011719 169.125 169.652344 170.382812 169.390625 C 170.988281 169.261719 171.703125 169.390625 172.332031 169.371094 L 174.085938 169.371094 C 174.738281 169.371094 175.410156 169.371094 176.058594 169.414062 C 176.710938 169.457031 177.292969 169.542969 177.921875 169.609375 L 180.066406 169.910156 C 180.957031 170.0625 181.824219 170.105469 182.710938 170.214844 C 182.839844 170.234375 182.820312 169.824219 182.710938 169.800781 Z M 182.6875 169.78125 " fill-opacity="1" fill-rule="nonzero"/><g clip-path="url(#0bdfb5bbfd)"><path fill="#1d1d1b" d="M 169.40625 171.8125 C 169.777344 175.125 169.492188 178.453125 168.0625 181.503906 C 166.871094 183.992188 165.507812 186.304688 163.6875 188.359375 C 162.753906 189.421875 161.648438 190.609375 162.128906 192.144531 C 162.605469 193.683594 164.378906 194.136719 165.679688 194.351562 C 166.113281 194.417969 166.546875 194.4375 166.980469 194.417969 C 167.261719 194.394531 167.695312 194.246094 167.957031 194.351562 C 169.039062 194.828125 167.804688 196.167969 167.457031 196.730469 C 166.71875 197.921875 166.199219 199.5 167.414062 200.582031 C 168.195312 201.253906 168.539062 201.921875 168.539062 202.960938 C 168.539062 204 168.390625 204.800781 168.5625 205.6875 C 168.734375 206.574219 169.191406 206.726562 169.839844 206.898438 C 170.230469 206.992188 170.605469 207.121094 170.96875 207.289062 C 171.445312 207.546875 171.445312 208.042969 171.574219 208.542969 L 171.574219 207.871094 C 171.03125 209.515625 170.101562 211.027344 169.992188 212.78125 C 169.933594 213.570312 170.058594 214.332031 170.363281 215.0625 C 170.667969 215.792969 171.125 216.417969 171.726562 216.933594 C 173.804688 218.773438 176.949219 218.859375 179.527344 218.253906 C 183.316406 217.367188 186.957031 215.894531 190.425781 214.1875 C 193.304688 212.757812 196.121094 211.222656 198.59375 209.167969 C 201.820312 206.488281 204.660156 203.351562 207.261719 200.085938 C 207.5 199.804688 207.304688 198.546875 206.957031 198.960938 C 204.53125 201.988281 201.929688 204.929688 198.960938 207.460938 C 196.46875 209.601562 193.71875 211.179688 190.792969 212.652344 C 187.21875 214.46875 183.449219 216.003906 179.527344 216.933594 C 176.796875 217.582031 173.351562 217.453125 171.402344 215.160156 C 171.0625 214.796875 170.824219 214.378906 170.683594 213.902344 C 170.546875 213.425781 170.527344 212.945312 170.621094 212.457031 C 170.792969 211.570312 171.207031 210.726562 171.550781 209.90625 C 171.898438 209.082031 172.203125 208.476562 172.007812 207.65625 C 171.8125 206.832031 171.769531 206.335938 171.074219 205.988281 C 170.382812 205.644531 169.882812 205.707031 169.386719 205.40625 C 168.886719 205.101562 169.105469 203.933594 169.125 203.371094 C 169.148438 202.007812 168.972656 200.625 167.957031 199.628906 C 167.761719 199.457031 167.285156 199.199219 167.261719 198.917969 C 167.242188 198.636719 167.609375 198.117188 167.738281 197.878906 C 168.128906 197.207031 168.671875 196.558594 168.929688 195.84375 C 169.171875 195.101562 169.089844 194.394531 168.691406 193.726562 C 168.550781 193.4375 168.34375 193.214844 168.0625 193.054688 C 167.824219 192.925781 167.566406 193.03125 167.304688 193.078125 C 165.917969 193.226562 164.097656 192.882812 163.015625 191.929688 C 162.777344 191.734375 162.582031 191.539062 162.625 191.28125 C 162.667969 191.019531 163.015625 190.632812 163.1875 190.394531 C 163.773438 189.703125 164.402344 189.054688 164.964844 188.339844 C 166.417969 186.566406 167.5 184.46875 168.453125 182.433594 C 169.644531 179.902344 170.144531 177.15625 170.144531 174.386719 C 170.140625 173.410156 170.082031 172.4375 169.96875 171.46875 C 169.949219 171.273438 169.863281 170.925781 169.601562 171.011719 C 169.34375 171.101562 169.386719 171.640625 169.40625 171.8125 Z M 169.40625 171.8125 " fill-opacity="1" fill-rule="nonzero"/></g><path fill="#1d1d1b" d="M 182.667969 177.351562 L 182.320312 177.566406 C 181.878906 177.835938 181.410156 178.039062 180.914062 178.171875 C 180.515625 178.292969 180.113281 178.359375 179.699219 178.367188 C 178.617188 178.410156 177.707031 177.847656 176.621094 177.871094 C 175.539062 177.890625 174.695312 178.214844 173.871094 178.628906 L 173.046875 179.101562 L 172.808594 179.210938 L 172.765625 179.210938 C 172.65625 179.296875 172.550781 179.101562 172.527344 179.015625 C 172.46875 178.820312 172.492188 178.632812 172.59375 178.453125 C 172.613281 178.410156 172.679688 178.347656 172.679688 178.324219 L 172.917969 178.128906 C 173.164062 177.957031 173.425781 177.804688 173.699219 177.675781 C 174.515625 177.289062 175.375 177.066406 176.277344 177.003906 L 176.492188 177.003906 C 177.425781 176.898438 178.355469 176.984375 179.289062 176.984375 C 180.199219 176.980469 181.09375 176.859375 181.972656 176.617188 L 182.558594 176.421875 C 182.625 176.402344 182.683594 176.414062 182.734375 176.464844 C 182.90625 176.636719 182.839844 177.242188 182.667969 177.351562 Z M 182.667969 177.351562 " fill-opacity="1" fill-rule="nonzero"/><g clip-path="url(#32d4d625e1)"><path fill="#1d1d1b" d="M 169.820312 171.75 C 168.28125 167.226562 168.496094 162.101562 171.140625 158.015625 C 172.570312 155.785156 174.867188 153.949219 177.25 152.824219 C 179.222656 151.890625 181.496094 151.417969 183.6875 151.742188 C 185.875 152.066406 188.257812 153.320312 190.359375 154.335938 C 193.285156 155.742188 196.1875 157.320312 198.722656 159.375 C 200 160.414062 201.453125 161.734375 201.996094 163.355469 C 202.234375 164.003906 202.125 164.699219 202.144531 165.390625 C 202.179688 166.613281 202.308594 167.824219 202.535156 169.023438 C 202.871094 170.675781 203.472656 172.226562 204.335938 173.675781 C 205.203125 175.125 206.632812 176.746094 208.496094 176.527344 C 210.359375 176.3125 211.3125 174.648438 212.742188 173.824219 C 214.910156 172.59375 217.269531 174.019531 218.546875 175.859375 C 219.175781 176.765625 219.695312 177.914062 219.609375 179.039062 C 219.523438 180.164062 219.046875 180.964844 218.613281 181.828125 C 217.378906 184.164062 216.058594 186.695312 214.0625 188.46875 C 212.785156 189.59375 211.289062 190.738281 209.621094 191.152344 C 208.625 191.410156 207.605469 191.28125 206.933594 190.4375 C 206.261719 189.59375 206.695312 187.992188 207.671875 187.171875 C 208.648438 186.347656 210.054688 185.917969 211.3125 185.398438 C 212.570312 184.878906 213.285156 184.316406 213.910156 183.300781 C 214.539062 182.28125 215.40625 179.816406 214.148438 178.757812 C 213.5 178.214844 212.503906 178.28125 211.722656 178.390625 C 211.289062 178.453125 211.375 179.753906 211.746094 179.707031 C 212.113281 179.664062 213.628906 179.425781 214.085938 180.054688 C 214.539062 180.683594 213.652344 182.195312 213.195312 182.757812 C 212.285156 183.839844 210.898438 184.164062 209.644531 184.660156 C 208.386719 185.160156 207.28125 185.832031 206.566406 186.910156 C 205.613281 188.402344 205.742188 190.804688 207 191.886719 C 207.304688 192.125 207.644531 192.296875 208.019531 192.40625 C 209.988281 192.96875 212.046875 191.390625 213.238281 190.503906 C 215.101562 189.097656 216.382812 187.34375 217.550781 185.332031 C 218.722656 183.320312 220.152344 181.265625 220.171875 178.929688 C 220.195312 176.59375 218.9375 174.34375 217.117188 173.023438 C 216.207031 172.375 215.039062 171.945312 213.910156 172.117188 C 212.785156 172.289062 212.179688 172.832031 211.464844 173.414062 C 210.054688 174.605469 208.558594 176.03125 206.632812 174.90625 C 205.070312 173.976562 204.160156 172.09375 203.53125 170.472656 C 202.753906 168.460938 202.667969 166.320312 202.625 164.179688 C 202.601562 162.511719 201.667969 161.0625 200.542969 159.894531 C 198.007812 157.234375 194.605469 155.375 191.355469 153.773438 C 189.40625 152.800781 187.433594 151.761719 185.355469 151.09375 C 183.253906 150.429688 181.152344 150.421875 179.050781 151.070312 C 175.929688 151.980469 173.046875 154.121094 171.164062 156.757812 C 168.539062 160.414062 167.914062 165.390625 168.84375 169.714844 C 169.035156 170.554688 169.277344 171.375 169.582031 172.179688 C 169.710938 172.550781 169.882812 171.898438 169.820312 171.75 Z M 169.820312 171.75 " fill-opacity="1" fill-rule="nonzero"/></g><path fill="#1d1d1b" d="M 175.34375 201.859375 C 175.117188 201.734375 174.90625 201.582031 174.714844 201.402344 C 174.628906 201.304688 174.535156 201.210938 174.433594 201.121094 C 174.175781 200.949219 173.871094 200.796875 173.609375 200.648438 L 172.246094 199.738281 C 171.640625 199.285156 171.074219 198.808594 170.511719 198.332031 C 169.949219 197.855469 169.777344 197.75 169.363281 197.726562 C 168.953125 197.707031 168.582031 197.597656 168.171875 197.640625 C 167.242188 197.726562 166.851562 198.613281 167.175781 199.457031 C 167.261719 199.714844 167.371094 199.261719 167.371094 199.175781 C 167.285156 198.59375 167.675781 198.332031 168.195312 198.246094 C 168.507812 198.175781 168.816406 198.183594 169.125 198.265625 C 169.367188 198.359375 169.589844 198.484375 169.796875 198.636719 L 170.253906 198.9375 L 170.859375 199.523438 C 171.375 200.011719 171.933594 200.449219 172.527344 200.839844 C 172.917969 201.121094 173.328125 201.359375 173.761719 201.621094 C 173.964844 201.769531 174.179688 201.890625 174.414062 201.988281 C 174.53125 202.023438 174.65625 202.042969 174.78125 202.054688 C 174.96875 202.105469 175.148438 202.179688 175.324219 202.269531 C 175.453125 202.3125 175.453125 201.921875 175.34375 201.859375 Z M 175.34375 201.859375 " fill-opacity="1" fill-rule="nonzero"/><path fill="#1d1d1b" d="M 169.667969 206.03125 C 170.238281 206.230469 170.824219 206.292969 171.421875 206.226562 C 172.015625 206.113281 172.566406 205.890625 173.070312 205.558594 C 174.097656 204.910156 174.855469 204.03125 175.34375 202.917969 C 175.429688 202.703125 175.515625 201.859375 175.105469 201.835938 C 173.890625 201.816406 172.65625 201.773438 171.445312 201.640625 C 170.878906 201.601562 170.332031 201.484375 169.796875 201.296875 C 169.539062 201.199219 169.300781 201.070312 169.082031 200.90625 C 168.820312 200.734375 168.628906 200.410156 168.324219 200.257812 C 168.019531 200.105469 168.128906 200.691406 168.152344 200.777344 C 168.605469 202.007812 170.121094 202.421875 171.355469 202.746094 C 172.59375 203.070312 173.890625 203.070312 175.148438 203.089844 L 174.910156 202.03125 C 174.4375 203.03125 173.75 203.851562 172.851562 204.496094 C 172.402344 204.796875 171.925781 205.050781 171.421875 205.253906 C 170.867188 205.496094 170.289062 205.660156 169.6875 205.75 C 169.582031 205.773438 169.601562 206.011719 169.667969 206.03125 Z M 169.667969 206.03125 " fill-opacity="1" fill-rule="nonzero"/><path fill="#1d1d1b" d="M 172.050781 190.71875 C 172.460938 191.929688 171.769531 193.53125 170.316406 193.898438 C 170 193.992188 169.703125 193.949219 169.429688 193.769531 C 168.910156 193.464844 168.433594 193.054688 167.914062 192.75 L 167.585938 192.558594 C 167.207031 192.632812 166.824219 192.65625 166.4375 192.621094 C 166.027344 192.601562 165.183594 192.558594 164.988281 192.125 C 164.792969 191.691406 164.855469 191.519531 165.007812 191.347656 C 165.160156 191.171875 166.332031 191.042969 166.785156 191.171875 C 167.625 191.429688 168.398438 191.820312 169.105469 192.339844 C 169.300781 192.492188 169.515625 192.730469 169.777344 192.796875 C 170.035156 192.859375 170.578125 192.664062 170.859375 192.46875 C 171.140625 192.277344 171.878906 191.628906 171.445312 191.109375 C 171.214844 190.871094 170.949219 190.6875 170.640625 190.566406 C 170.359375 190.460938 170.316406 189.398438 170.664062 189.421875 L 170.6875 189.421875 C 171.007812 189.507812 171.292969 189.664062 171.535156 189.894531 C 171.777344 190.125 171.949219 190.402344 172.050781 190.71875 Z M 172.050781 190.71875 " fill-opacity="1" fill-rule="nonzero"/><path fill="#1d1d1b" d="M 183.144531 176.160156 C 183.101562 176.335938 183.035156 176.507812 182.992188 176.660156 L 182.796875 177.136719 L 182.734375 177.285156 C 182.285156 177.535156 181.816406 177.738281 181.324219 177.890625 C 181.496094 177.695312 181.671875 177.523438 181.824219 177.328125 C 181.835938 177.328125 181.84375 177.324219 181.84375 177.308594 C 182.027344 177.039062 182.183594 176.757812 182.320312 176.464844 L 182.386719 176.3125 C 182.527344 175.980469 182.617188 175.636719 182.644531 175.273438 C 182.667969 174.453125 181.496094 174.410156 180.890625 174.34375 C 180.257812 174.289062 179.621094 174.269531 178.984375 174.28125 C 178.070312 174.289062 177.226562 174.535156 176.449219 175.015625 C 175.820312 175.425781 175.472656 175.988281 175.019531 176.550781 C 174.152344 177.632812 172.699219 177.242188 171.746094 176.527344 C 170.792969 175.816406 170.46875 175.035156 170.144531 174.085938 C 169.921875 173.511719 169.761719 172.917969 169.667969 172.3125 C 169.621094 172.082031 169.605469 171.851562 169.625 171.617188 L 169.625 171.316406 C 169.644531 170.839844 170.058594 170.863281 170.058594 171.359375 L 170.058594 171.1875 L 170.101562 171.316406 C 170.140625 171.40625 170.179688 171.5 170.207031 171.597656 C 170.316406 171.855469 170.359375 172.136719 170.445312 172.417969 C 170.605469 173.066406 170.835938 173.6875 171.140625 174.28125 C 171.683594 175.253906 173.285156 176.335938 174.367188 175.597656 C 174.910156 175.230469 175.148438 174.515625 175.648438 174.085938 C 176.214844 173.589844 176.867188 173.25 177.597656 173.066406 C 179.023438 172.761719 180.449219 172.78125 181.867188 173.132812 C 183.339844 173.523438 183.511719 174.84375 183.144531 176.160156 Z M 183.144531 176.160156 " fill-opacity="1" fill-rule="nonzero"/><g clip-path="url(#31c27668dd)"><path fill="#1d1d1b" d="M 206.738281 199.457031 C 205.417969 205.230469 205.136719 211.355469 206.523438 217.152344 C 207.140625 219.796875 208.160156 222.28125 209.574219 224.601562 C 210.988281 226.925781 212.730469 228.96875 214.800781 230.734375 C 217.25 232.832031 219.957031 234.496094 223.011719 235.535156 C 223.445312 235.6875 223.511719 234.410156 223.164062 234.28125 C 220.886719 233.476562 218.765625 232.371094 216.800781 230.96875 C 214.832031 229.570312 213.097656 227.925781 211.59375 226.039062 C 207.5625 220.980469 206.046875 214.488281 206.199219 208.109375 C 206.285156 205.40625 206.632812 202.738281 207.238281 200.105469 C 207.28125 199.890625 207.347656 199.371094 207.128906 199.21875 C 206.914062 199.066406 206.785156 199.199219 206.738281 199.457031 Z M 206.738281 199.457031 " fill-opacity="1" fill-rule="nonzero"/></g><path fill="#1d1d1b" d="M 212.089844 190.632812 C 209.925781 192.125 207.324219 193.097656 204.660156 193.140625 C 203.171875 193.121094 201.703125 192.925781 200.261719 192.558594 C 198.710938 192.183594 197.230469 191.628906 195.820312 190.890625 C 194 189.941406 192.394531 188.578125 190.316406 188.210938 C 187.519531 187.710938 184.464844 188.683594 182.257812 190.414062 C 181.03125 191.359375 180.097656 192.535156 179.460938 193.941406 C 178.855469 195.34375 178.601562 196.808594 178.703125 198.332031 C 178.800781 199.828125 179.148438 201.261719 179.75 202.636719 C 180.347656 204.011719 181.160156 205.246094 182.191406 206.335938 C 184.207031 208.519531 187 209.6875 189.925781 209.925781 C 192.574219 210.132812 195.097656 209.65625 197.488281 208.5 C 199.710938 207.417969 201.6875 205.996094 203.425781 204.238281 C 204.570312 203.121094 205.601562 201.910156 206.523438 200.605469 L 206.785156 200.214844 C 206.871094 200.085938 206.933594 199.847656 206.804688 199.714844 C 206.675781 199.585938 206.5 199.738281 206.4375 199.847656 C 205.785156 200.824219 205.054688 201.738281 204.25 202.59375 C 202.753906 204.28125 201.050781 205.726562 199.132812 206.917969 C 196.882812 208.304688 194.304688 209.191406 191.617188 209.234375 C 188.929688 209.277344 186.371094 208.671875 184.25 207.15625 C 182.125 205.644531 180.175781 202.765625 179.503906 199.933594 C 179.15625 198.511719 179.128906 197.085938 179.417969 195.648438 C 179.730469 194.207031 180.402344 192.949219 181.433594 191.886719 C 182.449219 190.859375 183.632812 190.078125 184.980469 189.546875 C 186.324219 189.019531 187.722656 188.78125 189.167969 188.835938 C 190.203125 188.898438 191.183594 189.160156 192.113281 189.617188 C 192.980469 190.070312 193.804688 190.632812 194.648438 191.128906 C 197.316406 192.6875 200.191406 193.589844 203.273438 193.832031 C 205.9375 194 208.4375 193.4375 210.769531 192.144531 C 211.253906 191.882812 211.722656 191.59375 212.179688 191.28125 C 212.351562 191.160156 212.425781 190.992188 212.394531 190.785156 C 212.390625 190.707031 212.355469 190.652344 212.289062 190.621094 C 212.21875 190.585938 212.15625 190.589844 212.089844 190.632812 Z M 212.089844 190.632812 " fill-opacity="1" fill-rule="nonzero"/></svg>